<svg fill="none" xmlns="http://www.w3.org/2000/svg" class="h-4 w-4"><path d="M1.62524 8.11636L7.6712 2.07042C8.50598 1.23564 9.85941 1.23564 10.6941 2.07042C11.5289 2.90518 11.5289 4.25861 10.6941 5.09339L6.12821 9.65934" stroke="currentColor" stroke-width="1.5" stroke-linecap="round"></path><path d="M6.19116 9.59684L10.6941 5.09385C11.5289 4.25908 12.8823 4.25908 13.7171 5.09385L13.7486 5.12534C14.5834 5.96011 14.5834 7.31354 13.7486 8.14831L8.28059 13.6164C8.00233 13.8946 8.00233 14.3457 8.28059 14.6239L9.40336 15.7468" stroke="currentColor" stroke-width="1.5" stroke-linecap="round"></path><path d="M9.18266 3.58203L4.71116 8.05351C3.87639 8.88826 3.87639 10.2417 4.71116 11.0765C5.54593 11.9112 6.89936 11.9112 7.73414 11.0765L12.2056 6.605" stroke="currentColor" stroke-width="1.5" stroke-linecap="round"></path></svg>
